<svg id="Capa_1" enable-background="new 0 0 512 512" height="512" viewBox="0 0 512 512" width="512" xmlns="http://www.w3.org/2000/svg"><g><path d="m391.051 169.001c39.624 36.935 64.092 89.941 63.015 148.639-1.995 108.75-92.312 195.953-201.069 194.337-108.023-1.604-195.097-89.652-195.097-198.057 0-33.85 8.487-65.719 23.464-93.586 2.37-4.41 8.414-5.146 11.796-1.454 9.894 10.802 29.853 29.226 51.733 30.356 0 0-25.416-177.234 144.535-248.637 6.331-2.66 12.532 4.041 9.335 10.118-11.515 21.886-26.552 60.656-13.366 96.618 15.991 43.612 64.37 39.412 65.46 126.273 0 0 19.787-21.933 28.055-60.767 1.183-5.558 7.982-7.715 12.139-3.84z" fill="#ef5350"/><path d="m77.9 313.92c0-32.022 7.604-62.265 21.103-89.03-2.207-2.14-4.172-4.185-5.843-6.01-3.382-3.692-9.425-2.956-11.796 1.454-14.977 27.868-23.464 59.736-23.464 93.586 0 108.405 87.074 196.453 195.097 198.058 4.349.065 8.671-.013 12.956-.228-104.734-5.236-188.053-91.795-188.053-197.83z" fill="#e04646"/><path d="m164.893 249.236s-24.381-170.07 134.381-244.131c-1.235-3.755-5.509-6.328-9.846-4.505-151.652 63.714-147.744 211.692-145.144 242.821 6.473 3.209 13.436 5.445 20.609 5.815z" fill="#e04646"/><circle cx="256" cy="351.999" fill="#ebf6ff" r="111.999"/><path d="m164.001 351.999c0-58.484 44.835-106.498 102.005-111.558-3.295-.292-6.635-.441-10.006-.441-61.855 0-111.999 50.144-111.999 111.999s50.144 111.999 111.999 111.999c3.371 0 6.711-.149 10.006-.441-57.17-5.059-102.005-53.073-102.005-111.558z" fill="#d2e7f7"/><g><path d="m265.232 321.75c11.254 0 20.377-8.633 20.377-19.283v-9.558c0-10.65-9.123-19.283-20.377-19.283-6.632 0-13.116 1.858-18.634 5.339l-7.092 4.474c-9.346 5.896-14.959 15.821-14.959 26.45v81.472c0 10.629 5.613 20.554 14.959 26.45l7.092 4.474c5.518 3.481 12.002 5.339 18.634 5.339v-.006c11.254 0 20.377-8.633 20.377-19.283v-9.559c0-10.65-9.123-19.283-20.377-19.283v.006c-5.617 0-10.171-4.309-10.171-9.625v-38.499c0-5.316 4.554-9.625 10.171-9.625z" fill="#42a5f5"/><path d="m261.598 422.284-7.092-4.474c-9.346-5.896-14.959-15.821-14.959-26.45v-81.472c0-10.629 5.613-20.554 14.959-26.45l7.092-4.474c3.135-1.978 6.622-3.421 10.231-4.308-2.062-.664-4.298-1.031-6.597-1.031-6.632 0-13.116 1.858-18.634 5.339l-7.092 4.474c-9.346 5.896-14.959 15.821-14.959 26.45v81.472c0 10.629 5.613 20.554 14.959 26.45l7.092 4.474c5.518 3.481 12.002 5.339 18.634 5.339v-.006c2.295 0 4.521-.366 6.58-1.027-3.605-.887-7.082-2.33-10.214-4.306z" fill="#0593fc"/></g></g></svg>