<?xml version="1.0" encoding="iso-8859-1"?>
<!-- Generator: Adobe Illustrator 19.0.0, SVG Export Plug-In . SVG Version: 6.00 Build 0)  -->
<svg version="1.1" id="Capa_1" xmlns="http://www.w3.org/2000/svg" xmlns:xlink="http://www.w3.org/1999/xlink" x="0px" y="0px"
	 viewBox="0 0 511.999 511.999" style="enable-background:new 0 0 511.999 511.999;" xml:space="preserve">
<g>
	<g>
		<path d="M496.946,272.105H481.19C474.326,168.747,397.543,83.974,297.7,65.629c2.683-5.759,4.289-13.877,4.289-20.639
			c0-24.808-20.182-44.99-44.99-44.99s-44.99,20.182-44.99,44.99c0,6.762,1.606,14.88,4.289,20.639
			C116.455,83.974,37.672,168.746,30.81,272.105H15.053c-8.289,0-14.997,6.308-14.997,14.597s6.707,14.997,14.997,14.997h481.893
			c8.289,0,14.997-6.708,14.997-14.997S505.235,272.105,496.946,272.105z M256.999,61.752c-8.274,0-14.997-8.487-14.997-16.762
			s6.723-14.997,14.997-14.997c8.274,0,14.997,6.722,14.997,14.997S265.274,61.752,256.999,61.752z"/>
	</g>
</g>
<g>
	<g>
		<path d="M45.047,361.685c-8.399,0-14.997,6.598-14.997,14.997v120.207c0,8.397,6.598,14.997,14.997,14.997h44.99V361.685H45.047z"
			/>
	</g>
</g>
<g>
	<g>
		<path d="M465.194,348.846c-11.716-11.716-30.695-11.716-42.411-0.001l-85.879,85.479c-10.759,10.759-24.916,16.741-40.027,17.34
			h-41.076c-8.225,0-14.997-6.12-14.997-14.997c0-8.879,6.771-14.997,14.997-14.997c18.946,0,15.436,0,46.189,0
			c16.496,0,29.993-13.497,29.993-29.993s-13.497-29.593-29.993-29.593h-29.993c-5.263,0-9.232,0.188-13.497-3.599
			c-5.318-4.655-11.096-10.461-16.496-13.897c-29.977-21.16-73.326-26.297-109.477-7.408c-7.681,4.013-12.496,11.972-12.496,20.639
			v154.067c190.757,0.256,173.303-0.002,174.446,0c32.044,0,62.183-12.477,84.839-35.148l85.879-85.879
			C476.911,379.143,476.911,360.563,465.194,348.846z"/>
	</g>
</g>
<g>
</g>
<g>
</g>
<g>
</g>
<g>
</g>
<g>
</g>
<g>
</g>
<g>
</g>
<g>
</g>
<g>
</g>
<g>
</g>
<g>
</g>
<g>
</g>
<g>
</g>
<g>
</g>
<g>
</g>
</svg>
